<?xml version="1.0" encoding="UTF-8" standalone="no"?>
<svg
   viewBox="0 0 250 240"
   version="1.1"
   id="svg82"
   sodipodi:docname="BRAC University logo.svg"
   inkscape:version="1.1.2 (0a00cf5339, 2022-02-04)"
   width="250"
   height="240"
   xmlns:inkscape="http://www.inkscape.org/namespaces/inkscape"
   xmlns:sodipodi="http://sodipodi.sourceforge.net/DTD/sodipodi-0.dtd"
   xmlns="http://www.w3.org/2000/svg"
   xmlns:svg="http://www.w3.org/2000/svg"
   xmlns:rdf="http://www.w3.org/1999/02/22-rdf-syntax-ns#"
   xmlns:cc="http://creativecommons.org/ns#"
   xmlns:dc="http://purl.org/dc/elements/1.1/">
  <sodipodi:namedview
     id="namedview84"
     pagecolor="#505050"
     bordercolor="#eeeeee"
     borderopacity="1"
     inkscape:pageshadow="0"
     inkscape:pageopacity="0"
     inkscape:pagecheckerboard="0"
     showgrid="false"
     inkscape:zoom="1.8408537"
     inkscape:cx="314.25637"
     inkscape:cy="126.3001"
     inkscape:window-width="1366"
     inkscape:window-height="704"
     inkscape:window-x="0"
     inkscape:window-y="0"
     inkscape:window-maximized="1"
     inkscape:current-layer="svg82"
     fit-margin-top="0"
     fit-margin-left="0"
     fit-margin-right="0"
     fit-margin-bottom="0" />
  <defs
     id="defs4">
    <style
       id="style2">.a{fill:#231f20;}.a,.b,.c{fill-rule:evenodd;}.b{fill:#a7a9ac;}.c{fill:#2a5caa;}</style>
  </defs>
  <title
     id="title6">logo</title>
  <g
     id="g940"
     transform="matrix(0.6445566,0,0,0.6445566,2.5064457,7.5989973)">
    <path
       class="a"
       d="m 116.21,589.26 v 0.51 h -8.12 v -0.51 h 0.67 a 2,2 0 0 0 1.71,-0.68 4.26,4.26 0 0 0 0.33,-2.15 v -12.27 a 6.31,6.31 0 0 0 -0.18,-1.9 1.26,1.26 0 0 0 -0.58,-0.6 2.64,2.64 0 0 0 -1.29,-0.33 h -0.67 v -0.51 h 8.12 v 0.51 h -0.68 a 2,2 0 0 0 -1.69,0.68 4.1,4.1 0 0 0 -0.35,2.15 v 12.26 a 6.31,6.31 0 0 0 0.18,1.9 1.22,1.22 0 0 0 0.59,0.6 2.55,2.55 0 0 0 1.27,0.33 z"
       transform="translate(-108.09,-247.16)"
       id="path8" />
    <path
       class="a"
       d="m 129.11,579.27 q 2.24,-2.68 4.27,-2.68 a 3.07,3.07 0 0 1 1.8,0.52 3.5,3.5 0 0 1 1.2,1.72 8,8 0 0 1 0.31,2.57 v 5.47 a 4.61,4.61 0 0 0 0.2,1.64 1.14,1.14 0 0 0 0.49,0.54 2.82,2.82 0 0 0 1.26,0.2 v 0.51 h -6.32 v -0.51 h 0.27 a 2.12,2.12 0 0 0 1.24,-0.27 1.43,1.43 0 0 0 0.49,-0.8 7.89,7.89 0 0 0 0.06,-1.31 v -5.27 a 5.41,5.41 0 0 0 -0.45,-2.55 1.6,1.6 0 0 0 -1.52,-0.79 4.56,4.56 0 0 0 -3.29,1.82 v 6.79 a 4.84,4.84 0 0 0 0.15,1.6 1.34,1.34 0 0 0 0.54,0.59 3.38,3.38 0 0 0 1.39,0.19 v 0.51 h -6.35 v -0.51 h 0.28 a 1.51,1.51 0 0 0 1.32,-0.49 3.58,3.58 0 0 0 0.34,-1.88 v -4.75 a 20.27,20.27 0 0 0 -0.1,-2.8 1.21,1.21 0 0 0 -0.32,-0.69 0.88,0.88 0 0 0 -0.58,-0.18 2.7,2.7 0 0 0 -0.93,0.21 l -0.21,-0.51 3.86,-1.57 h 0.6 z"
       transform="translate(-108.09,-247.16)"
       id="path10" />
    <path
       class="a"
       d="m 155.5,576.59 v 4.35 H 155 a 5.62,5.62 0 0 0 -1.36,-2.78 3,3 0 0 0 -2.11,-0.74 2.33,2.33 0 0 0 -1.57,0.51 1.5,1.5 0 0 0 -0.6,1.14 2.11,2.11 0 0 0 0.44,1.34 5,5 0 0 0 1.75,1.22 l 2,1 q 2.83,1.39 2.83,3.65 a 3.43,3.43 0 0 1 -1.32,2.81 4.58,4.58 0 0 1 -2.95,1.07 10.39,10.39 0 0 1 -2.68,-0.41 2.81,2.81 0 0 0 -0.76,-0.13 0.55,0.55 0 0 0 -0.5,0.34 h -0.46 v -4.57 h 0.46 a 5.21,5.21 0 0 0 1.5,3 3.6,3.6 0 0 0 2.47,1 2.21,2.21 0 0 0 1.57,-0.56 1.8,1.8 0 0 0 0.61,-1.36 2.16,2.16 0 0 0 -0.68,-1.62 11.74,11.74 0 0 0 -2.71,-1.65 7.91,7.91 0 0 1 -2.65,-1.81 3.17,3.17 0 0 1 -0.62,-2 3.57,3.57 0 0 1 1.08,-2.64 3.8,3.8 0 0 1 2.79,-1.06 6.45,6.45 0 0 1 1.83,0.33 4.17,4.17 0 0 0 0.94,0.21 0.56,0.56 0 0 0 0.35,-0.1 1.39,1.39 0 0 0 0.29,-0.44 z"
       transform="translate(-108.09,-247.16)"
       id="path12" />
    <path
       class="a"
       d="m 165,578.22 3.93,-1.57 h 0.53 v 3 a 7.24,7.24 0 0 1 2,-2.35 3.71,3.71 0 0 1 2.11,-0.67 4.05,4.05 0 0 1 3.22,1.51 7.12,7.12 0 0 1 1.58,4.8 8,8 0 0 1 -1.9,5.47 5,5 0 0 1 -3.94,1.77 5,5 0 0 1 -1.79,-0.29 4.16,4.16 0 0 1 -1.26,-0.83 v 3.9 a 5.14,5.14 0 0 0 0.16,1.68 1.21,1.21 0 0 0 0.56,0.57 3.45,3.45 0 0 0 1.45,0.21 v 0.51 h -6.72 v -0.51 h 0.35 a 2.54,2.54 0 0 0 1.32,-0.29 1,1 0 0 0 0.41,-0.5 5.78,5.78 0 0 0 0.15,-1.73 v -12.19 a 6.62,6.62 0 0 0 -0.11,-1.56 1,1 0 0 0 -0.36,-0.5 1.16,1.16 0 0 0 -0.66,-0.17 2.57,2.57 0 0 0 -0.85,0.2 l -0.17,-0.46 z m 4.46,2.22 v 4.78 a 10.52,10.52 0 0 0 0.12,2 2.64,2.64 0 0 0 1,1.43 3,3 0 0 0 1.92,0.61 2.74,2.74 0 0 0 2.26,-1.09 6.31,6.31 0 0 0 1.13,-4 7,7 0 0 0 -1.29,-4.52 2.67,2.67 0 0 0 -2.13,-1.09 2.89,2.89 0 0 0 -1.33,0.33 7.86,7.86 0 0 0 -1.66,1.55 z"
       transform="translate(-108.09,-247.16)"
       id="path14" />
    <path
       class="a"
       d="m 191.09,569.9 a 1.4,1.4 0 0 1 1.41,1.41 1.39,1.39 0 0 1 -0.41,1 1.35,1.35 0 0 1 -1,0.42 1.42,1.42 0 0 1 -1,-2.42 1.4,1.4 0 0 1 1,-0.41 z m 1.15,6.69 v 10.29 a 4.55,4.55 0 0 0 0.18,1.59 1.19,1.19 0 0 0 0.51,0.59 2.81,2.81 0 0 0 1.25,0.2 v 0.51 H 188 v -0.51 a 2.88,2.88 0 0 0 1.25,-0.18 1.25,1.25 0 0 0 0.51,-0.6 4.52,4.52 0 0 0 0.19,-1.6 v -4.95 a 17.7,17.7 0 0 0 -0.12,-2.68 1.06,1.06 0 0 0 -0.31,-0.61 0.84,0.84 0 0 0 -0.57,-0.18 2.81,2.81 0 0 0 -0.95,0.21 l -0.2,-0.51 3.85,-1.57 z"
       transform="translate(-108.09,-247.16)"
       id="path16" />
    <path
       class="a"
       d="m 207.1,576.59 v 2.89 q 1.59,-2.89 3.27,-2.89 a 1.76,1.76 0 0 1 1.26,0.47 1.44,1.44 0 0 1 0.5,1.08 1.3,1.3 0 0 1 -0.36,0.93 1.15,1.15 0 0 1 -0.86,0.38 1.81,1.81 0 0 1 -1.09,-0.49 1.81,1.81 0 0 0 -0.9,-0.49 0.83,0.83 0 0 0 -0.54,0.28 6.74,6.74 0 0 0 -1.29,1.89 v 6.12 a 3.84,3.84 0 0 0 0.27,1.62 1.4,1.4 0 0 0 0.64,0.62 2.84,2.84 0 0 0 1.32,0.25 v 0.51 h -6.55 v -0.51 a 2.69,2.69 0 0 0 1.44,-0.3 1.18,1.18 0 0 0 0.49,-0.71 7,7 0 0 0 0.07,-1.35 v -4.95 a 20.32,20.32 0 0 0 -0.09,-2.65 1.05,1.05 0 0 0 -0.33,-0.62 1,1 0 0 0 -0.61,-0.2 2.78,2.78 0 0 0 -1,0.21 l -0.14,-0.51 3.87,-1.57 z"
       transform="translate(-108.09,-247.16)"
       id="path18" />
    <path
       class="a"
       d="m 223.7,569.9 a 1.4,1.4 0 0 1 1.41,1.41 1.39,1.39 0 0 1 -0.41,1 1.35,1.35 0 0 1 -1,0.42 1.43,1.43 0 0 1 -1.42,-1.42 1.38,1.38 0 0 1 0.41,-1 1.4,1.4 0 0 1 1,-0.41 z m 1.15,6.69 v 10.29 a 4.55,4.55 0 0 0 0.18,1.59 1.19,1.19 0 0 0 0.51,0.59 2.81,2.81 0 0 0 1.25,0.2 v 0.51 h -6.2 v -0.51 a 2.88,2.88 0 0 0 1.25,-0.18 1.25,1.25 0 0 0 0.51,-0.6 4.52,4.52 0 0 0 0.19,-1.6 v -4.95 a 17.71,17.71 0 0 0 -0.12,-2.68 1.06,1.06 0 0 0 -0.31,-0.61 0.84,0.84 0 0 0 -0.57,-0.18 2.81,2.81 0 0 0 -0.95,0.21 l -0.2,-0.51 3.85,-1.57 z"
       transform="translate(-108.09,-247.16)"
       id="path20" />
    <path
       class="a"
       d="m 239.69,579.27 q 2.24,-2.68 4.27,-2.68 a 3.07,3.07 0 0 1 1.8,0.52 3.5,3.5 0 0 1 1.2,1.72 8,8 0 0 1 0.31,2.57 v 5.47 a 4.61,4.61 0 0 0 0.2,1.64 1.14,1.14 0 0 0 0.49,0.54 2.82,2.82 0 0 0 1.26,0.2 v 0.51 h -6.32 v -0.51 h 0.27 a 2.12,2.12 0 0 0 1.24,-0.27 1.43,1.43 0 0 0 0.49,-0.8 7.89,7.89 0 0 0 0.06,-1.31 v -5.27 a 5.41,5.41 0 0 0 -0.45,-2.55 1.6,1.6 0 0 0 -1.52,-0.79 4.56,4.56 0 0 0 -3.29,1.82 v 6.79 a 4.84,4.84 0 0 0 0.15,1.6 1.34,1.34 0 0 0 0.54,0.59 3.38,3.38 0 0 0 1.39,0.19 v 0.51 h -6.35 v -0.51 h 0.28 a 1.51,1.51 0 0 0 1.32,-0.49 3.58,3.58 0 0 0 0.34,-1.88 v -4.75 a 20.27,20.27 0 0 0 -0.1,-2.8 1.21,1.21 0 0 0 -0.32,-0.69 0.88,0.88 0 0 0 -0.58,-0.18 2.7,2.7 0 0 0 -0.93,0.21 l -0.21,-0.51 3.86,-1.57 h 0.6 z"
       transform="translate(-108.09,-247.16)"
       id="path22" />
    <path
       class="a"
       d="m 261.23,585.08 a 4.22,4.22 0 0 1 -1.8,-1.6 4.27,4.27 0 0 1 -0.62,-2.26 4.35,4.35 0 0 1 1.43,-3.26 5.06,5.06 0 0 1 3.65,-1.37 5.58,5.58 0 0 1 3.16,0.89 h 2.7 a 3.52,3.52 0 0 1 0.7,0 0.22,0.22 0 0 1 0.14,0.12 0.85,0.85 0 0 1 0.09,0.45 1.24,1.24 0 0 1 -0.07,0.51 0.29,0.29 0 0 1 -0.14,0.11 3,3 0 0 1 -0.7,0 h -1.66 a 4.31,4.31 0 0 1 -0.58,5.62 5.18,5.18 0 0 1 -3.66,1.27 7.14,7.14 0 0 1 -1.93,-0.28 3.87,3.87 0 0 0 -0.83,0.93 1.5,1.5 0 0 0 -0.21,0.68 0.64,0.64 0 0 0 0.23,0.46 1.69,1.69 0 0 0 0.9,0.32 c 0.26,0 0.91,0.08 2,0.1 a 36.25,36.25 0 0 1 3.73,0.21 3.49,3.49 0 0 1 2.07,1 2.63,2.63 0 0 1 0.78,1.93 4,4 0 0 1 -1.48,3 8,8 0 0 1 -5.68,2 8.11,8.11 0 0 1 -4.55,-1.21 c -0.7,-0.47 -1,-1 -1,-1.45 a 1.64,1.64 0 0 1 0.15,-0.67 7.93,7.93 0 0 1 1,-1.44 c 0.07,-0.09 0.54,-0.59 1.42,-1.51 a 4.39,4.39 0 0 1 -1,-0.78 1.16,1.16 0 0 1 -0.3,-0.78 2.36,2.36 0 0 1 0.4,-1.15 9.17,9.17 0 0 1 1.82,-1.87 z m 2.43,-7.8 a 2.17,2.17 0 0 0 -1.72,0.82 3.84,3.84 0 0 0 -0.7,2.52 5.39,5.39 0 0 0 0.95,3.41 2.23,2.23 0 0 0 1.83,0.92 2.19,2.19 0 0 0 1.74,-0.79 3.78,3.78 0 0 0 0.68,-2.49 5.57,5.57 0 0 0 -1,-3.46 2.21,2.21 0 0 0 -1.82,-0.92 z m -2.56,12.49 a 6.53,6.53 0 0 0 -1,1.32 2.38,2.38 0 0 0 -0.33,1.13 1.43,1.43 0 0 0 0.81,1.17 7.67,7.67 0 0 0 4,0.86 6.21,6.21 0 0 0 3.7,-0.89 2.43,2.43 0 0 0 1.19,-1.89 1.06,1.06 0 0 0 -0.71,-1 9.33,9.33 0 0 0 -2.87,-0.36 48.11,48.11 0 0 1 -4.79,-0.34 z"
       transform="translate(-108.09,-247.16)"
       id="path24" />
    <path
       class="a"
       d="m 301.41,571.85 v 7.49 h 4.17 a 3.4,3.4 0 0 0 2.16,-0.49 3.14,3.14 0 0 0 0.81,-2.26 h 0.51 v 6.6 h -0.51 a 7.32,7.32 0 0 0 -0.39,-1.78 1.76,1.76 0 0 0 -0.82,-0.77 4.2,4.2 0 0 0 -1.76,-0.28 h -4.17 v 6.25 a 6,6 0 0 0 0.11,1.53 0.88,0.88 0 0 0 0.39,0.43 2.35,2.35 0 0 0 1.06,0.16 h 3.21 a 8.76,8.76 0 0 0 2.33,-0.22 3.44,3.44 0 0 0 1.39,-0.88 10.77,10.77 0 0 0 1.77,-2.61 h 0.57 l -1.63,4.75 H 296 v -0.51 h 0.67 a 2.66,2.66 0 0 0 1.27,-0.32 1.16,1.16 0 0 0 0.61,-0.67 6.49,6.49 0 0 0 0.16,-1.83 v -12.33 a 4,4 0 0 0 -0.36,-2.22 2.18,2.18 0 0 0 -1.68,-0.56 H 296 v -0.51 h 14.61 l 0.2,4.17 h -0.54 a 6.64,6.64 0 0 0 -0.65,-2.07 2.27,2.27 0 0 0 -1.05,-0.86 6.36,6.36 0 0 0 -2,-0.21 z"
       transform="translate(-108.09,-247.16)"
       id="path26" />
    <path
       class="a"
       d="m 320.85,577 h 6 v 0.51 a 1.23,1.23 0 0 0 -0.8,0.2 0.66,0.66 0 0 0 -0.23,0.52 2.18,2.18 0 0 0 0.51,1 l 0.47,0.7 0.92,1.46 1.05,-1.46 a 5,5 0 0 0 1,-1.74 0.67,0.67 0 0 0 -0.24,-0.51 1.15,1.15 0 0 0 -0.77,-0.21 V 577 h 4.29 v 0.51 a 2.38,2.38 0 0 0 -1.2,0.38 9.56,9.56 0 0 0 -1.87,2.06 l -1.75,2.33 3.18,4.62 a 9.25,9.25 0 0 0 1.68,2 2.49,2.49 0 0 0 1.3,0.39 v 0.49 h -6 v -0.49 a 1.52,1.52 0 0 0 1,-0.28 0.62,0.62 0 0 0 0.27,-0.52 4.9,4.9 0 0 0 -0.9,-1.63 l -1.87,-2.73 -2.05,2.73 a 5.37,5.37 0 0 0 -0.92,1.52 0.8,0.8 0 0 0 0.31,0.61 1.49,1.49 0 0 0 0.94,0.3 v 0.49 H 321 v -0.49 a 1.86,1.86 0 0 0 0.88,-0.35 12.37,12.37 0 0 0 1.78,-2.07 l 2.66,-3.58 -2.41,-3.52 a 8,8 0 0 0 -1.59,-1.9 2.44,2.44 0 0 0 -1.41,-0.39 z"
       transform="translate(-108.09,-247.16)"
       id="path28" />
    <path
       class="a"
       d="m 354.13,584.91 a 6.86,6.86 0 0 1 -2,3.88 4.82,4.82 0 0 1 -7.13,-0.48 7.16,7.16 0 0 1 -1.62,-4.94 6.82,6.82 0 0 1 1.79,-4.9 5.74,5.74 0 0 1 4.3,-1.88 4.7,4.7 0 0 1 3.1,1 2.75,2.75 0 0 1 1.22,2.07 1.13,1.13 0 0 1 -0.34,0.86 1.32,1.32 0 0 1 -1,0.33 1.44,1.44 0 0 1 -1.23,-0.53 2.13,2.13 0 0 1 -0.33,-1.12 1.87,1.87 0 0 0 -0.56,-1.27 2,2 0 0 0 -1.35,-0.42 2.76,2.76 0 0 0 -2.25,1 5.52,5.52 0 0 0 -1.13,3.63 7.36,7.36 0 0 0 1.12,4.05 3.46,3.46 0 0 0 3,1.75 3.7,3.7 0 0 0 2.46,-0.92 6.25,6.25 0 0 0 1.5,-2.34 z"
       transform="translate(-108.09,-247.16)"
       id="path30" />
    <path
       class="a"
       d="m 365.64,581.8 a 6.54,6.54 0 0 0 1.38,4.45 4.23,4.23 0 0 0 3.28,1.61 3.58,3.58 0 0 0 2.18,-0.69 5,5 0 0 0 1.52,-2.37 l 0.43,0.28 a 6.65,6.65 0 0 1 -1.7,3.5 4.55,4.55 0 0 1 -3.53,1.57 5.15,5.15 0 0 1 -3.94,-1.79 6.87,6.87 0 0 1 -1.64,-4.82 7.28,7.28 0 0 1 1.68,-5.11 5.47,5.47 0 0 1 4.22,-1.83 4.71,4.71 0 0 1 3.58,1.4 5.2,5.2 0 0 1 1.38,3.79 z m 0,-0.8 h 5.92 a 5.54,5.54 0 0 0 -0.29,-1.73 2.76,2.76 0 0 0 -1,-1.22 2.59,2.59 0 0 0 -1.44,-0.45 2.88,2.88 0 0 0 -2.07,0.9 3.91,3.91 0 0 0 -1.12,2.5 z"
       transform="translate(-108.09,-247.16)"
       id="path32" />
    <path
       class="a"
       d="m 388.2,569.9 v 17 a 4.65,4.65 0 0 0 0.17,1.58 1.25,1.25 0 0 0 0.54,0.59 3.09,3.09 0 0 0 1.35,0.2 v 0.51 H 384 v -0.51 a 2.74,2.74 0 0 0 1.2,-0.18 1.22,1.22 0 0 0 0.51,-0.6 4.67,4.67 0 0 0 0.18,-1.6 v -11.64 a 20.48,20.48 0 0 0 -0.1,-2.63 1.16,1.16 0 0 0 -0.31,-0.67 0.84,0.84 0 0 0 -0.55,-0.18 2.62,2.62 0 0 0 -0.91,0.22 l -0.24,-0.51 3.8,-1.57 z"
       transform="translate(-108.09,-247.16)"
       id="path34" />
    <path
       class="a"
       d="m 403.71,569.9 v 17 a 4.65,4.65 0 0 0 0.17,1.58 1.25,1.25 0 0 0 0.54,0.59 3.09,3.09 0 0 0 1.35,0.2 v 0.51 h -6.26 v -0.51 a 2.74,2.74 0 0 0 1.2,-0.18 1.22,1.22 0 0 0 0.51,-0.6 4.67,4.67 0 0 0 0.18,-1.6 v -11.64 a 20.48,20.48 0 0 0 -0.1,-2.63 1.16,1.16 0 0 0 -0.31,-0.67 0.84,0.84 0 0 0 -0.55,-0.18 2.62,2.62 0 0 0 -0.91,0.22 l -0.24,-0.51 3.8,-1.57 z"
       transform="translate(-108.09,-247.16)"
       id="path36" />
    <path
       class="a"
       d="m 416.95,581.8 a 6.54,6.54 0 0 0 1.38,4.45 4.23,4.23 0 0 0 3.28,1.61 3.58,3.58 0 0 0 2.18,-0.69 5,5 0 0 0 1.56,-2.37 l 0.43,0.28 a 6.65,6.65 0 0 1 -1.7,3.5 4.55,4.55 0 0 1 -3.53,1.57 5.15,5.15 0 0 1 -3.94,-1.79 6.87,6.87 0 0 1 -1.64,-4.82 7.28,7.28 0 0 1 1.68,-5.11 5.47,5.47 0 0 1 4.22,-1.83 4.72,4.72 0 0 1 3.53,1.4 5.2,5.2 0 0 1 1.38,3.79 z m 0,-0.8 h 5.92 a 5.53,5.53 0 0 0 -0.29,-1.73 2.76,2.76 0 0 0 -1,-1.22 2.59,2.59 0 0 0 -1.44,-0.45 2.88,2.88 0 0 0 -2.07,0.9 3.91,3.91 0 0 0 -1.12,2.5 z"
       transform="translate(-108.09,-247.16)"
       id="path38" />
    <path
       class="a"
       d="m 438.81,579.27 q 2.24,-2.68 4.27,-2.68 a 3.07,3.07 0 0 1 1.8,0.52 3.5,3.5 0 0 1 1.2,1.72 8,8 0 0 1 0.31,2.57 v 5.47 a 4.61,4.61 0 0 0 0.2,1.64 1.14,1.14 0 0 0 0.49,0.54 2.82,2.82 0 0 0 1.26,0.2 v 0.51 H 442 v -0.51 h 0.27 a 2.12,2.12 0 0 0 1.24,-0.27 1.43,1.43 0 0 0 0.49,-0.8 7.89,7.89 0 0 0 0.06,-1.31 v -5.27 a 5.41,5.41 0 0 0 -0.45,-2.55 1.6,1.6 0 0 0 -1.52,-0.79 4.56,4.56 0 0 0 -3.29,1.82 v 6.79 a 4.84,4.84 0 0 0 0.15,1.6 1.34,1.34 0 0 0 0.54,0.59 3.38,3.38 0 0 0 1.39,0.19 v 0.51 h -6.35 v -0.51 h 0.28 a 1.51,1.51 0 0 0 1.32,-0.49 3.58,3.58 0 0 0 0.34,-1.88 v -4.75 a 20.27,20.27 0 0 0 -0.1,-2.8 1.21,1.21 0 0 0 -0.32,-0.69 0.88,0.88 0 0 0 -0.58,-0.18 2.7,2.7 0 0 0 -0.93,0.21 l -0.21,-0.51 3.86,-1.57 h 0.6 z"
       transform="translate(-108.09,-247.16)"
       id="path40" />
    <path
       class="a"
       d="m 467.83,584.91 a 6.86,6.86 0 0 1 -2,3.88 4.82,4.82 0 0 1 -7.13,-0.48 7.16,7.16 0 0 1 -1.62,-4.94 6.82,6.82 0 0 1 1.79,-4.9 5.74,5.74 0 0 1 4.3,-1.88 4.7,4.7 0 0 1 3.1,1 2.75,2.75 0 0 1 1.22,2.07 1.13,1.13 0 0 1 -0.34,0.86 1.32,1.32 0 0 1 -1,0.33 1.44,1.44 0 0 1 -1.23,-0.53 2.13,2.13 0 0 1 -0.33,-1.12 1.87,1.87 0 0 0 -0.56,-1.27 2,2 0 0 0 -1.35,-0.42 2.76,2.76 0 0 0 -2.25,1 5.52,5.52 0 0 0 -1.13,3.63 7.36,7.36 0 0 0 1.12,4.05 3.46,3.46 0 0 0 3,1.75 3.7,3.7 0 0 0 2.46,-0.92 6.25,6.25 0 0 0 1.5,-2.34 z"
       transform="translate(-108.09,-247.16)"
       id="path42" />
    <path
       class="a"
       d="m 479.35,581.8 a 6.54,6.54 0 0 0 1.38,4.45 4.23,4.23 0 0 0 3.28,1.61 3.58,3.58 0 0 0 2.18,-0.69 5,5 0 0 0 1.56,-2.37 l 0.43,0.28 a 6.65,6.65 0 0 1 -1.7,3.5 4.55,4.55 0 0 1 -3.53,1.57 5.15,5.15 0 0 1 -3.94,-1.79 6.87,6.87 0 0 1 -1.64,-4.82 7.28,7.28 0 0 1 1.68,-5.11 5.47,5.47 0 0 1 4.22,-1.83 4.71,4.71 0 0 1 3.53,1.4 5.2,5.2 0 0 1 1.38,3.79 z m 0,-0.8 h 5.92 a 5.53,5.53 0 0 0 -0.29,-1.73 2.76,2.76 0 0 0 -1,-1.22 2.59,2.59 0 0 0 -1.44,-0.45 2.88,2.88 0 0 0 -2.07,0.9 3.91,3.91 0 0 0 -1.12,2.5 z"
       transform="translate(-108.09,-247.16)"
       id="path44" />
    <path
       class="a"
       d="m 208.18,462.64 c 0,0 28.09,5.29 51.27,18 23.18,12.71 38.38,26.37 38.38,26.86 0,0.49 15.16,-14.24 38,-26.94 22.84,-12.7 51.15,-18 51.15,-18 v 11.42 c 0,0 -18.88,2.65 -42.93,15.31 -24.05,12.66 -38.32,26.84 -38.32,26.86 v 8 l -0.12,0.32 -0.15,0.28 -0.2,0.29 -0.23,0.25 -0.28,0.23 -0.29,0.19 -0.32,0.16 -0.3,0.11 h -11.35 l -0.37,-0.08 -0.34,-0.11 -0.33,-0.14 -0.31,-0.22 -0.3,-0.3 -0.22,-0.32 -0.18,-0.29 -0.1,-0.33 v -7.61 c 0,0 -17.06,-15.62 -35.62,-25.6 -18.56,-9.98 -46.63,-17.06 -46.56,-17 z"
       transform="translate(-108.09,-247.16)"
       id="path46" />
    <path
       class="b"
       d="m 208.18,494.32 c 0,0 28.09,5.29 51.27,18 23.18,12.71 38.38,26.37 38.38,26.86 0,0.49 15.16,-14.24 38,-26.94 22.84,-12.7 51.15,-18 51.15,-18 v 11.42 c 0,0 -18.88,2.65 -42.93,15.31 -24.05,12.66 -38.32,26.84 -38.32,26.86 v 8 l -0.12,0.32 -0.15,0.28 -0.2,0.29 -0.23,0.25 -0.28,0.23 -0.29,0.19 -0.32,0.16 -0.3,0.11 h -11.35 l -0.37,-0.08 -0.34,-0.11 -0.33,-0.14 -0.31,-0.22 -0.3,-0.3 -0.22,-0.32 -0.18,-0.29 -0.1,-0.33 v -7.61 c 0,0 -17.06,-15.62 -35.62,-25.61 -18.56,-9.99 -46.63,-17.06 -46.56,-17 z"
       transform="translate(-108.09,-247.16)"
       id="path48" />
    <path
       class="c"
       d="m 298.14,247.16 c 79.61,0 144.53,64.93 144.53,144.53 A 143.94,143.94 0 0 1 404.83,489 l -7.15,-7.15 a 133.86,133.86 0 0 0 34.88,-90.17 c 0,-74 -60.38,-134.42 -134.42,-134.42 -74.04,0 -134.42,60.4 -134.42,134.44 a 133.86,133.86 0 0 0 34.66,89.93 l -7.16,7.16 A 144,144 0 0 1 153.6,391.7 c 0,-79.61 64.93,-144.54 144.54,-144.54 z"
       transform="translate(-108.09,-247.16)"
       id="path50" />
    <path
       class="a"
       d="m 239.05,350.52 a 14.18,14.18 0 0 1 6.9,3.15 9.78,9.78 0 0 1 3.17,7.37 11,11 0 0 1 -2.09,6.35 11.94,11.94 0 0 1 -5.74,4.42 q -3.63,1.39 -11.12,1.4 h -20.9 V 372 h 1.65 a 4.45,4.45 0 0 0 4,-1.77 c 0.5,-0.76 0.75,-2.39 0.75,-4.87 v -28.72 q 0,-4.12 -0.94,-5.19 a 4.76,4.76 0 0 0 -3.77,-1.44 h -1.65 v -1.2 h 19.09 a 37.63,37.63 0 0 1 8.58,0.78 13.81,13.81 0 0 1 7.48,4.18 10.24,10.24 0 0 1 2.58,6.89 9.56,9.56 0 0 1 -2,6 11.84,11.84 0 0 1 -6,3.91 z m -17.13,-1.82 a 24.68,24.68 0 0 0 2.76,0.35 c 1,0.08 2.18,0.11 3.42,0.11 a 19.24,19.24 0 0 0 7.18,-1 7.65,7.65 0 0 0 3.72,-3.16 8.88,8.88 0 0 0 1.26,-4.62 8.46,8.46 0 0 0 -3.17,-6.62 q -3.16,-2.73 -9.23,-2.73 a 22.2,22.2 0 0 0 -5.88,0.71 v 17 z m 0,21.28 a 33,33 0 0 0 7.51,0.88 q 5.94,0 9.07,-2.67 a 8.34,8.34 0 0 0 3.11,-6.59 9.39,9.39 0 0 0 -1.45,-5 9.61,9.61 0 0 0 -4.61,-3.76 19.76,19.76 0 0 0 -7.85,-1.37 c -1.35,0 -2.5,0 -3.46,0.07 a 19.23,19.23 0 0 0 -2.32,0.22 z"
       transform="translate(-108.09,-247.16)"
       id="path52" />
    <path
       class="a"
       d="m 298.11,373.21 h -11.89 l -15.08,-20.76 q -1.62,0.07 -2.65,0.07 h -0.89 -1 v 12.93 q 0,4.19 0.92,5.19 a 4.64,4.64 0 0 0 3.72,1.44 H 273 v 1.2 H 254 V 372 h 1.66 a 4.46,4.46 0 0 0 4,-1.83 c 0.46,-0.67 0.68,-2.28 0.68,-4.8 v -28.73 c 0,-2.79 -0.3,-4.52 -0.92,-5.19 a 4.79,4.79 0 0 0 -3.78,-1.44 h -1.66 v -1.2 h 16.16 a 38.63,38.63 0 0 1 10.43,1 11.9,11.9 0 0 1 5.69,3.81 9.86,9.86 0 0 1 2.34,6.6 10.39,10.39 0 0 1 -2.67,7.11 c -1.78,2 -4.53,3.43 -8.27,4.26 l 9.19,12.72 c 2.1,2.92 3.9,4.88 5.4,5.84 a 13.45,13.45 0 0 0 5.88,1.84 v 1.2 z M 266.6,350.37 h 1.07 0.74 q 6.28,0 9.47,-2.75 a 8.85,8.85 0 0 0 3.19,-7 8.87,8.87 0 0 0 -9.39,-9.37 29.16,29.16 0 0 0 -5.08,0.6 z"
       transform="translate(-108.09,-247.16)"
       id="path54" />
    <path
       class="a"
       d="M 328.17,358.4 H 311 l -3,7 a 11.19,11.19 0 0 0 -1.12,3.86 2.26,2.26 0 0 0 1,1.79 c 0.64,0.5 2,0.84 4.17,1 v 1.2 H 298 V 372 a 7.48,7.48 0 0 0 3.59,-1.27 q 1.67,-1.57 3.7,-6.39 l 15.62,-36.55 H 322 l 15.44,36.94 c 1.24,3 2.37,4.89 3.38,5.78 a 6.91,6.91 0 0 0 4.24,1.49 v 1.2 h -17.5 V 372 a 6.6,6.6 0 0 0 3.58,-0.88 2.27,2.27 0 0 0 0.93,-1.84 13.64,13.64 0 0 0 -1.31,-4.55 l -2.62,-6.32 z m -1,-2.41 -7.48,-17.92 L 312,356 Z"
       transform="translate(-108.09,-247.16)"
       id="path56" />
    <path
       class="a"
       d="m 386.18,327.79 1,15.07 h -1 c -1.35,-4.51 -3.27,-7.77 -5.77,-9.75 a 14,14 0 0 0 -9,-3 14.59,14.59 0 0 0 -7.95,2.24 14.84,14.84 0 0 0 -5.59,7.16 32.12,32.12 0 0 0 -2,12.21 26,26 0 0 0 1.92,10.45 14.51,14.51 0 0 0 5.78,6.78 16.56,16.56 0 0 0 8.81,2.36 15.26,15.26 0 0 0 7.59,-1.84 q 3.3,-1.84 7.23,-7.33 l 1,0.67 a 23.29,23.29 0 0 1 -7.77,8.65 19.73,19.73 0 0 1 -10.54,2.74 q -11,0 -17,-8.18 a 23.46,23.46 0 0 1 -4.51,-14.34 25.57,25.57 0 0 1 3,-12.21 21.52,21.52 0 0 1 8.16,-8.63 22,22 0 0 1 11.36,-3.06 20.73,20.73 0 0 1 9.45,2.36 5.11,5.11 0 0 0 2,0.72 2.16,2.16 0 0 0 1.53,-0.62 5,5 0 0 0 1.21,-2.46 z"
       transform="translate(-108.09,-247.16)"
       id="path58" />
    <path
       class="a"
       d="M 199.74,392.72 V 392 h 9.32 v 0.72 h -1 a 2.69,2.69 0 0 0 -2.4,1.31 6,6 0 0 0 -0.41,2.81 v 10.75 a 19,19 0 0 1 -0.79,6.19 7.76,7.76 0 0 1 -3.11,3.77 11,11 0 0 1 -6.29,1.57 q -4.33,0 -6.57,-1.51 a 8.1,8.1 0 0 1 -3.18,-4 22.39,22.39 0 0 1 -0.63,-6.53 v -10.4 q 0,-2.44 -0.67,-3.2 a 2.76,2.76 0 0 0 -2.17,-0.76 h -1 V 392 h 11.46 v 0.72 h -1 a 2.63,2.63 0 0 0 -2.34,1 5.77,5.77 0 0 0 -0.49,2.93 v 11.55 a 25.81,25.81 0 0 0 0.28,3.54 7.63,7.63 0 0 0 1,3.11 5.7,5.7 0 0 0 2.14,1.84 7.41,7.41 0 0 0 3.43,0.72 9.48,9.48 0 0 0 4.65,-1.13 6.07,6.07 0 0 0 2.8,-2.9 16.85,16.85 0 0 0 0.75,-6 v -10.7 c 0,-1.65 -0.18,-2.69 -0.55,-3.1 a 2.86,2.86 0 0 0 -2.26,-0.86 z"
       transform="translate(-108.09,-247.16)"
       id="path60" />
    <path
       class="a"
       d="m 209,392 h 7.13 l 16.25,19.91 V 396.6 c 0,-1.63 -0.19,-2.65 -0.55,-3.06 a 3,3 0 0 0 -2.31,-0.82 h -0.93 V 392 h 9.32 v 0.72 h -0.95 a 2.75,2.75 0 0 0 -2.42,1 6,6 0 0 0 -0.43,2.86 v 22.34 h -0.71 l -17.45,-21.36 v 16.33 c 0,1.63 0.18,2.65 0.53,3.06 a 3,3 0 0 0 2.32,0.82 h 0.95 v 0.72 h -9.32 v -0.72 h 0.93 a 2.77,2.77 0 0 0 2.43,-1 5.94,5.94 0 0 0 0.43,-2.86 v -18.43 a 12.26,12.26 0 0 0 -1.75,-1.78 6.69,6.69 0 0 0 -1.75,-0.81 6.43,6.43 0 0 0 -1.72,-0.17 z"
       transform="translate(-108.09,-247.16)"
       id="path62" />
    <path
       class="a"
       d="m 250.75,417.8 v 0.72 h -11.36 v -0.72 h 0.94 a 2.86,2.86 0 0 0 2.39,-1 6,6 0 0 0 0.47,-3 v -17.12 a 8.78,8.78 0 0 0 -0.25,-2.65 1.76,1.76 0 0 0 -0.81,-0.84 3.69,3.69 0 0 0 -1.8,-0.47 h -0.94 V 392 h 11.36 v 0.72 h -1 a 2.81,2.81 0 0 0 -2.36,1 5.73,5.73 0 0 0 -0.49,3 v 17.16 a 8.81,8.81 0 0 0 0.25,2.65 1.7,1.7 0 0 0 0.82,0.84 3.56,3.56 0 0 0 1.77,0.47 z"
       transform="translate(-108.09,-247.16)"
       id="path64" />
    <path
       class="a"
       d="m 280.08,392 v 0.72 a 4.3,4.3 0 0 0 -2.13,0.91 8.2,8.2 0 0 0 -1.83,3 l -9.2,22.54 h -0.72 l -9.91,-22.84 a 12.59,12.59 0 0 0 -1.07,-2.16 3.46,3.46 0 0 0 -1.21,-1 5.57,5.57 0 0 0 -1.92,-0.44 V 392 h 10.81 v 0.72 a 5,5 0 0 0 -2.39,0.63 1.43,1.43 0 0 0 -0.55,1.15 8.81,8.81 0 0 0 0.9,3 l 6.74,15.52 6.26,-15.33 a 10.33,10.33 0 0 0 0.92,-3.15 1.49,1.49 0 0 0 -0.57,-1.08 3.72,3.72 0 0 0 -1.91,-0.73 l -0.33,-0.06 V 392 Z"
       transform="translate(-108.09,-247.16)"
       id="path66" />
    <path
       class="a"
       d="m 288.95,393.44 v 10.48 h 5.84 a 4.75,4.75 0 0 0 3,-0.68 4.39,4.39 0 0 0 1.13,-3.16 h 0.72 v 9.24 h -0.72 a 10.23,10.23 0 0 0 -0.55,-2.49 2.44,2.44 0 0 0 -1.15,-1.07 5.87,5.87 0 0 0 -2.46,-0.39 h -5.84 v 8.75 a 8.38,8.38 0 0 0 0.15,2.14 1.23,1.23 0 0 0 0.55,0.61 3.26,3.26 0 0 0 1.49,0.23 h 4.49 a 12.27,12.27 0 0 0 3.26,-0.31 4.84,4.84 0 0 0 1.95,-1.23 15.12,15.12 0 0 0 2.48,-3.65 h 0.8 l -2.29,6.64 h -20.41 v -0.72 h 0.94 a 3.71,3.71 0 0 0 1.78,-0.45 1.62,1.62 0 0 0 0.85,-0.94 9.15,9.15 0 0 0 0.23,-2.57 V 396.6 c 0,-1.68 -0.17,-2.71 -0.51,-3.1 a 3,3 0 0 0 -2.35,-0.78 h -0.94 V 392 h 20.44 l 0.28,5.84 h -0.76 a 9.31,9.31 0 0 0 -0.91,-2.9 3.16,3.16 0 0 0 -1.47,-1.2 8.85,8.85 0 0 0 -2.75,-0.29 z"
       transform="translate(-108.09,-247.16)"
       id="path68" />
    <path
       class="a"
       d="M 332.07,418.52 H 325 l -9,-12.4 q -1,0 -1.58,0 h -0.53 -0.59 v 7.72 q 0,2.5 0.55,3.1 a 2.77,2.77 0 0 0 2.22,0.86 h 1 v 0.72 H 305.7 v -0.72 h 1 a 2.66,2.66 0 0 0 2.4,-1.09 6.15,6.15 0 0 0 0.41,-2.87 v -17.16 c 0,-1.67 -0.18,-2.7 -0.55,-3.1 a 2.86,2.86 0 0 0 -2.26,-0.86 h -1 V 392 h 9.65 a 23.09,23.09 0 0 1 6.23,0.61 7.11,7.11 0 0 1 3.4,2.27 5.89,5.89 0 0 1 1.4,3.94 6.2,6.2 0 0 1 -1.59,4.24 9,9 0 0 1 -4.94,2.55 l 5.49,7.59 a 13.66,13.66 0 0 0 3.23,3.49 8,8 0 0 0 3.51,1.1 v 0.72 z m -18.81,-13.64 h 1.08 a 8.45,8.45 0 0 0 5.65,-1.64 5.28,5.28 0 0 0 1.91,-4.18 5.3,5.3 0 0 0 -5.61,-5.59 17.27,17.27 0 0 0 -3,0.36 z"
       transform="translate(-108.09,-247.16)"
       id="path70" />
    <path
       class="a"
       d="m 350.06,391.4 v 9.16 h -0.72 a 11.38,11.38 0 0 0 -1.26,-4.2 6.58,6.58 0 0 0 -2.6,-2.48 7.14,7.14 0 0 0 -3.48,-0.88 4.74,4.74 0 0 0 -3.37,1.24 3.78,3.78 0 0 0 -1.33,2.76 3.36,3.36 0 0 0 0.84,2.21 q 1.22,1.46 5.77,3.91 a 40.57,40.57 0 0 1 5.08,3.06 7.43,7.43 0 0 1 2.09,2.51 6.64,6.64 0 0 1 0.73,3 6.86,6.86 0 0 1 -2.33,5.19 8.47,8.47 0 0 1 -6,2.18 12.48,12.48 0 0 1 -2.17,-0.18 22.47,22.47 0 0 1 -2.51,-0.72 11.13,11.13 0 0 0 -2.41,-0.62 1,1 0 0 0 -0.77,0.29 2.44,2.44 0 0 0 -0.42,1.23 h -0.72 V 410 h 0.72 a 12.85,12.85 0 0 0 1.37,4.27 6.51,6.51 0 0 0 2.63,2.35 8.14,8.14 0 0 0 3.88,0.94 5.51,5.51 0 0 0 3.86,-1.29 4,4 0 0 0 1.42,-3.06 4.21,4.21 0 0 0 -0.53,-2 6,6 0 0 0 -1.67,-1.87 46.06,46.06 0 0 0 -4.17,-2.49 39.55,39.55 0 0 1 -4.85,-3 8.19,8.19 0 0 1 -2.19,-2.5 6.17,6.17 0 0 1 -0.75,-3 6.52,6.52 0 0 1 2.19,-4.91 7.83,7.83 0 0 1 5.61,-2.04 11.28,11.28 0 0 1 4.49,1 4.58,4.58 0 0 0 1.55,0.49 1.17,1.17 0 0 0 0.83,-0.3 2.48,2.48 0 0 0 0.52,-1.22 z"
       transform="translate(-108.09,-247.16)"
       id="path72" />
    <path
       class="a"
       d="m 366.3,417.8 v 0.72 h -11.36 v -0.72 h 0.94 a 2.86,2.86 0 0 0 2.39,-1 6,6 0 0 0 0.47,-3 v -17.12 a 8.77,8.77 0 0 0 -0.25,-2.65 1.76,1.76 0 0 0 -0.81,-0.84 3.69,3.69 0 0 0 -1.8,-0.47 h -0.94 V 392 h 11.36 v 0.72 h -1 a 2.81,2.81 0 0 0 -2.36,1 5.73,5.73 0 0 0 -0.49,3 v 17.16 a 8.81,8.81 0 0 0 0.25,2.65 1.7,1.7 0 0 0 0.82,0.84 3.56,3.56 0 0 0 1.77,0.47 z"
       transform="translate(-108.09,-247.16)"
       id="path74" />
    <path
       class="a"
       d="m 390.42,392 0.28,6.23 H 390 a 7.62,7.62 0 0 0 -0.59,-2.35 3.9,3.9 0 0 0 -1.61,-1.67 5.59,5.59 0 0 0 -2.65,-0.54 h -3.73 v 20.24 c 0,1.63 0.17,2.65 0.53,3.06 a 2.91,2.91 0 0 0 2.28,0.82 h 0.91 v 0.72 h -11.32 v -0.72 h 1 a 2.74,2.74 0 0 0 2.41,-1 5.94,5.94 0 0 0 0.43,-2.86 v -20.25 h -3.18 a 8.92,8.92 0 0 0 -2.64,0.27 3.61,3.61 0 0 0 -1.74,1.43 5.81,5.81 0 0 0 -0.86,2.85 h -0.74 l 0.28,-6.23 z"
       transform="translate(-108.09,-247.16)"
       id="path76" />
    <path
       class="a"
       d="M 410.79,392 H 420 v 0.72 h -0.51 a 4,4 0 0 0 -1.49,0.45 5.87,5.87 0 0 0 -1.78,1.29 17.75,17.75 0 0 0 -2,2.75 l -6.37,10 v 6.75 c 0,1.63 0.19,2.65 0.55,3.06 a 3.07,3.07 0 0 0 2.37,0.82 h 0.87 v 0.72 h -11.27 v -0.72 h 1 a 2.74,2.74 0 0 0 2.41,-1 5.94,5.94 0 0 0 0.43,-2.86 v -6.2 l -7.25,-11.21 a 23,23 0 0 0 -1.75,-2.43 6.77,6.77 0 0 0 -1.91,-1.17 2.64,2.64 0 0 0 -1.13,-0.19 V 392 h 11.31 v 0.72 h -0.59 a 3.41,3.41 0 0 0 -1.69,0.43 1.39,1.39 0 0 0 -0.77,1.29 6.16,6.16 0 0 0 1.2,2.55 l 5.49,8.54 5.23,-8.17 a 6,6 0 0 0 1.17,-2.74 1.77,1.77 0 0 0 -0.28,-1 1.9,1.9 0 0 0 -0.81,-0.67 3.85,3.85 0 0 0 -1.58,-0.25 z"
       transform="translate(-108.09,-247.16)"
       id="path78" />
    <path
       class="c"
       d="m 208.18,430.1 c 0,0 28.09,5.29 51.27,18 23.18,12.71 38.38,26.37 38.38,26.86 0,0.49 15.16,-14.24 38,-26.94 22.84,-12.7 51.15,-18 51.15,-18 v 11.42 c 0,0 -18.88,2.65 -42.93,15.31 -24.05,12.66 -38.32,26.84 -38.32,26.86 v 8 l -0.12,0.32 -0.15,0.28 -0.2,0.29 -0.23,0.25 -0.28,0.23 -0.29,0.19 -0.32,0.16 -0.3,0.11 h -11.35 l -0.37,-0.08 -0.34,-0.11 -0.33,-0.14 -0.31,-0.22 -0.3,-0.3 -0.22,-0.32 -0.18,-0.29 -0.1,-0.33 v -7.61 c 0,0 -17.06,-15.62 -35.62,-25.61 -18.56,-9.99 -46.63,-17.06 -46.56,-17 z"
       transform="translate(-108.09,-247.16)"
       id="path80" />
  </g>
  <metadata
     id="metadata901">
    <rdf:RDF>
      <cc:Work
         rdf:about="">
        <dc:title>logo</dc:title>
      </cc:Work>
    </rdf:RDF>
  </metadata>
</svg>
